<svg id="Layer_1" data-name="Layer 1" xmlns="http://www.w3.org/2000/svg" viewBox="0 0 32 31.21"><defs><style>.cls-1{fill:#191717;fill-rule:evenodd;}</style></defs><path class="cls-1" d="M16,.4a16,16,0,0,0-5.06,31.18c.8.14,1.09-.35,1.09-.77s0-1.39,0-2.73c-4.45,1-5.39-2.14-5.39-2.14A4.2,4.2,0,0,0,4.85,23.6c-1.46-1,.11-1,.11-1a3.36,3.36,0,0,1,2.45,1.65,3.41,3.41,0,0,0,4.65,1.33,3.42,3.42,0,0,1,1-2.14c-3.55-.41-7.29-1.78-7.29-7.91a6.17,6.17,0,0,1,1.65-4.29A5.7,5.7,0,0,1,7.6,7S8.94,6.6,12,8.67a15.12,15.12,0,0,1,8,0C23.06,6.6,24.4,7,24.4,7a5.75,5.75,0,0,1,.16,4.24,6.13,6.13,0,0,1,1.65,4.29c0,6.15-3.74,7.5-7.31,7.89a3.81,3.81,0,0,1,1.09,3c0,2.14,0,3.86,0,4.39s.29.92,1.1.77A16,16,0,0,0,16,.4Z" transform="translate(0 -0.4)"/></svg>